<svg xmlns="http://www.w3.org/2000/svg" xmlns:xlink="http://www.w3.org/1999/xlink" width="1500" zoomAndPan="magnify" viewBox="0 0 1125 449.999984" height="600" preserveAspectRatio="xMidYMid meet" version="1.0"><defs><g/><clipPath id="182460b692"><rect x="0" width="1121" y="0" height="450"/></clipPath></defs><g transform="matrix(1, 0, 0, 1, 0, 0)"><g clip-path="url(#182460b692)"><g fill="#ffffff" fill-opacity="1"><g transform="translate(-25.499978, 366.687546)"><g><path d="M 120.988281 -122.65625 C 109.695312 -94.421875 99.511719 -67.574219 89.328125 -39.988281 C 90.347656 -68.59375 91.179688 -95.347656 91.457031 -122.746094 L 90.71875 -263.636719 L 41.65625 -263.636719 L 51.652344 0 L 113.210938 0 L 234.015625 -263.636719 L 181.4375 -263.636719 Z M 120.988281 -122.65625 "/></g></g></g><g fill="#ffffff" fill-opacity="1"><g transform="translate(179.449036, 366.687546)"><g><path d="M 55.078125 -263.636719 L -1.019531 0 L 48.136719 0 L 70.261719 -103.769531 L 105.808594 -103.769531 C 130.246094 -103.769531 135.523438 -93.125 131.910156 -66.464844 L 126.914062 -32.121094 C 125.429688 -22.03125 123.949219 -10.644531 122.746094 0 L 171.160156 0 C 172.273438 -9.441406 173.84375 -21.660156 175.140625 -30.363281 L 180.417969 -67.851562 C 184.492188 -97.105469 178.84375 -115.0625 155.886719 -122.839844 C 184.675781 -130.152344 203.46875 -151.351562 210.226562 -182.917969 C 211.984375 -191.15625 213.003906 -198.839844 213.003906 -205.6875 C 213.003906 -241.976562 189.398438 -263.636719 143.203125 -263.636719 Z M 159.035156 -181.34375 C 153.109375 -153.015625 137.371094 -143.390625 113.859375 -143.390625 L 78.683594 -143.390625 L 95.4375 -222.257812 L 133.671875 -222.257812 C 151.535156 -222.257812 161.070312 -214.761719 161.070312 -197.171875 C 161.070312 -192.359375 160.332031 -187.175781 159.035156 -181.34375 Z M 159.035156 -181.34375 "/></g></g></g><g fill="#ffffff" fill-opacity="1"><g transform="translate(387.36025, 366.687546)"><g><path d="M 96.363281 5.183594 C 155.792969 5.183594 194.210938 -33.511719 213.371094 -125.523438 C 218.464844 -149.40625 220.871094 -168.847656 220.871094 -184.027344 C 220.871094 -237.347656 190.96875 -267.894531 139.964844 -267.894531 C 81.277344 -267.894531 42.304688 -228.925781 22.585938 -137.652344 C 17.496094 -113.582031 15.179688 -94.511719 15.179688 -79.054688 C 15.179688 -25.550781 45.359375 5.183594 96.363281 5.183594 Z M 99.511719 -37.769531 C 78.035156 -37.769531 64.152344 -51.285156 64.152344 -79.980469 C 64.152344 -91.273438 66.464844 -107.65625 71.742188 -132.746094 C 85.347656 -200.597656 107.378906 -224.945312 136.539062 -224.945312 C 157.738281 -224.945312 171.902344 -211.707031 171.902344 -183.289062 C 171.902344 -171.902344 169.585938 -155.515625 164.3125 -130.617188 C 149.777344 -62.019531 128.949219 -37.769531 99.511719 -37.769531 Z M 99.511719 -37.769531 "/></g></g></g><g fill="#ffffff" fill-opacity="1"><g transform="translate(608.879182, 366.687546)"><g><path d="M 96.363281 5.183594 C 155.792969 5.183594 194.210938 -33.511719 213.371094 -125.523438 C 218.464844 -149.40625 220.871094 -168.847656 220.871094 -184.027344 C 220.871094 -237.347656 190.96875 -267.894531 139.964844 -267.894531 C 81.277344 -267.894531 42.304688 -228.925781 22.585938 -137.652344 C 17.496094 -113.582031 15.179688 -94.511719 15.179688 -79.054688 C 15.179688 -25.550781 45.359375 5.183594 96.363281 5.183594 Z M 99.511719 -37.769531 C 78.035156 -37.769531 64.152344 -51.285156 64.152344 -79.980469 C 64.152344 -91.273438 66.464844 -107.65625 71.742188 -132.746094 C 85.347656 -200.597656 107.378906 -224.945312 136.539062 -224.945312 C 157.738281 -224.945312 171.902344 -211.707031 171.902344 -183.289062 C 171.902344 -171.902344 169.585938 -155.515625 164.3125 -130.617188 C 149.777344 -62.019531 128.949219 -37.769531 99.511719 -37.769531 Z M 99.511719 -37.769531 "/></g></g></g><g fill="#ffffff" fill-opacity="1"><g transform="translate(830.398141, 366.687546)"><g><path d="M 152.089844 -120.433594 C 143.851562 -101.640625 134.964844 -80.628906 126.355469 -59.429688 C 126.449219 -80.8125 126.171875 -100.53125 125.617188 -120.433594 L 119.601562 -263.636719 L 55.078125 -263.636719 L -1.019531 0 L 43.414062 0 L 71.1875 -130.984375 C 76.648438 -157.832031 81.644531 -183.101562 87.109375 -212.722656 C 87.015625 -183.84375 87.109375 -158.664062 87.847656 -131.078125 L 94.328125 0 L 135.523438 0 L 196.523438 -131.171875 C 208.742188 -158.199219 219.945312 -184.859375 232.070312 -213.371094 C 225.5 -184.769531 219.390625 -157.554688 213.742188 -131.171875 L 185.324219 0 L 228.644531 0 L 284.742188 -263.636719 L 216.613281 -263.636719 Z M 152.089844 -120.433594 "/></g></g></g></g></g></svg>