<svg width="222" height="225" viewBox="0 0 222 225" fill="none" xmlns="http://www.w3.org/2000/svg">
<path d="M108.935 90.1293L88.0082 110.605V113.907L108.935 134.715H112.256L132.84 113.907V110.605L112.256 90.1293H108.935Z" fill="#F9F7F8"/>
<path d="M109.931 3.19856C49.1562 3.19856 0 53.3896 0 117.785C0 182.181 45.1667 221.801 111.26 221.801C172.369 221.801 221.518 172.268 221.518 109.859C221.518 47.4512 175.682 3.19856 109.931 3.19856ZM114.908 211.564C65.7513 211.564 27.5603 166.986 27.5603 110.184C27.5603 53.3817 61.4433 13.1037 105.615 13.1037C154.763 13.1037 193.288 58.0136 193.288 115.141C193.288 172.268 160.743 211.564 114.908 211.564Z" fill="#F9F7F8"/>
</svg>
